<mxfile host="Electron" modified="2024-07-01T19:19:15.376Z" agent="Mozilla/5.0 (Windows NT 10.0; Win64; x64) AppleWebKit/537.36 (KHTML, like Gecko) draw.io/24.6.4 Chrome/124.0.6367.207 Electron/30.0.6 Safari/537.36" etag="x0gvlnBeCzSB_KuLPct9" version="24.6.4" type="device">
  <diagram id="lvS17z68HjxDDHRLPLRb" name="PÃ¡gina-1">
    <mxGraphModel dx="1434" dy="836" grid="0" gridSize="10" guides="1" tooltips="1" connect="1" arrows="1" fold="1" page="1" pageScale="1" pageWidth="1169" pageHeight="827" math="0" shadow="0">
      <root>
        <mxCell id="0" />
        <mxCell id="1" parent="0" />
        <mxCell id="URygbGzrcfz81gTZQ9Rd-13" style="edgeStyle=none;rounded=0;orthogonalLoop=1;jettySize=auto;html=1;exitX=0.5;exitY=0;exitDx=0;exitDy=0;entryX=0.5;entryY=1;entryDx=0;entryDy=0;endArrow=none;endFill=0;" parent="1" source="URygbGzrcfz81gTZQ9Rd-1" target="URygbGzrcfz81gTZQ9Rd-10" edge="1">
          <mxGeometry relative="1" as="geometry" />
        </mxCell>
        <mxCell id="URygbGzrcfz81gTZQ9Rd-1" value="Credentials" style="rounded=1;whiteSpace=wrap;html=1;" parent="1" vertex="1">
          <mxGeometry x="205" y="585" width="120" height="40" as="geometry" />
        </mxCell>
        <mxCell id="URygbGzrcfz81gTZQ9Rd-22" style="edgeStyle=none;rounded=0;orthogonalLoop=1;jettySize=auto;html=1;exitX=1;exitY=0.5;exitDx=0;exitDy=0;entryX=0;entryY=0.5;entryDx=0;entryDy=0;endArrow=none;endFill=0;" parent="1" source="URygbGzrcfz81gTZQ9Rd-2" target="URygbGzrcfz81gTZQ9Rd-21" edge="1">
          <mxGeometry relative="1" as="geometry" />
        </mxCell>
        <mxCell id="URygbGzrcfz81gTZQ9Rd-2" value="User" style="rounded=1;whiteSpace=wrap;html=1;" parent="1" vertex="1">
          <mxGeometry x="205" y="348" width="120" height="40" as="geometry" />
        </mxCell>
        <mxCell id="URygbGzrcfz81gTZQ9Rd-37" style="edgeStyle=none;rounded=0;orthogonalLoop=1;jettySize=auto;html=1;exitX=1;exitY=0.5;exitDx=0;exitDy=0;entryX=0;entryY=0.5;entryDx=0;entryDy=0;endArrow=none;endFill=0;" parent="1" source="URygbGzrcfz81gTZQ9Rd-3" target="URygbGzrcfz81gTZQ9Rd-36" edge="1">
          <mxGeometry relative="1" as="geometry" />
        </mxCell>
        <mxCell id="URygbGzrcfz81gTZQ9Rd-3" value="Product" style="rounded=1;whiteSpace=wrap;html=1;" parent="1" vertex="1">
          <mxGeometry x="540" y="119" width="120" height="40" as="geometry" />
        </mxCell>
        <mxCell id="URygbGzrcfz81gTZQ9Rd-31" style="edgeStyle=none;rounded=0;orthogonalLoop=1;jettySize=auto;html=1;exitX=1;exitY=1;exitDx=0;exitDy=0;entryX=0;entryY=0;entryDx=0;entryDy=0;endArrow=none;endFill=0;" parent="1" source="URygbGzrcfz81gTZQ9Rd-4" target="URygbGzrcfz81gTZQ9Rd-30" edge="1">
          <mxGeometry relative="1" as="geometry" />
        </mxCell>
        <mxCell id="URygbGzrcfz81gTZQ9Rd-4" value="Note" style="rounded=1;whiteSpace=wrap;html=1;" parent="1" vertex="1">
          <mxGeometry x="548" y="348" width="120" height="40" as="geometry" />
        </mxCell>
        <mxCell id="URygbGzrcfz81gTZQ9Rd-28" style="edgeStyle=none;rounded=0;orthogonalLoop=1;jettySize=auto;html=1;exitX=0.5;exitY=0;exitDx=0;exitDy=0;entryX=0.5;entryY=1;entryDx=0;entryDy=0;endArrow=none;endFill=0;" parent="1" source="URygbGzrcfz81gTZQ9Rd-5" target="URygbGzrcfz81gTZQ9Rd-27" edge="1">
          <mxGeometry relative="1" as="geometry" />
        </mxCell>
        <mxCell id="URygbGzrcfz81gTZQ9Rd-5" value="Client" style="rounded=1;whiteSpace=wrap;html=1;" parent="1" vertex="1">
          <mxGeometry x="548" y="591" width="120" height="40" as="geometry" />
        </mxCell>
        <mxCell id="OZj-sqrpwGuW4iX8PO1a-9" style="edgeStyle=orthogonalEdgeStyle;rounded=0;orthogonalLoop=1;jettySize=auto;html=1;exitX=0.5;exitY=1;exitDx=0;exitDy=0;entryX=0.5;entryY=0;entryDx=0;entryDy=0;endArrow=none;endFill=0;" parent="1" source="URygbGzrcfz81gTZQ9Rd-6" target="OZj-sqrpwGuW4iX8PO1a-8" edge="1">
          <mxGeometry relative="1" as="geometry" />
        </mxCell>
        <mxCell id="URygbGzrcfz81gTZQ9Rd-6" value="Category" style="rounded=1;whiteSpace=wrap;html=1;" parent="1" vertex="1">
          <mxGeometry x="205" y="119" width="120" height="40" as="geometry" />
        </mxCell>
        <mxCell id="URygbGzrcfz81gTZQ9Rd-7" value="Invoice" style="rounded=1;whiteSpace=wrap;html=1;" parent="1" vertex="1">
          <mxGeometry x="845" y="588" width="120" height="40" as="geometry" />
        </mxCell>
        <mxCell id="URygbGzrcfz81gTZQ9Rd-14" style="edgeStyle=none;rounded=0;orthogonalLoop=1;jettySize=auto;html=1;exitX=0.5;exitY=0;exitDx=0;exitDy=0;entryX=0.5;entryY=1;entryDx=0;entryDy=0;endArrow=none;endFill=0;" parent="1" source="URygbGzrcfz81gTZQ9Rd-10" target="URygbGzrcfz81gTZQ9Rd-2" edge="1">
          <mxGeometry relative="1" as="geometry" />
        </mxCell>
        <mxCell id="URygbGzrcfz81gTZQ9Rd-10" value="tiene" style="shape=rhombus;perimeter=rhombusPerimeter;whiteSpace=wrap;html=1;align=center;" parent="1" vertex="1">
          <mxGeometry x="235" y="455" width="60" height="60" as="geometry" />
        </mxCell>
        <mxCell id="URygbGzrcfz81gTZQ9Rd-15" style="edgeStyle=none;rounded=0;orthogonalLoop=1;jettySize=auto;html=1;exitX=1;exitY=1;exitDx=0;exitDy=0;entryX=0;entryY=0;entryDx=0;entryDy=0;endArrow=none;endFill=0;" parent="1" source="URygbGzrcfz81gTZQ9Rd-2" target="URygbGzrcfz81gTZQ9Rd-17" edge="1">
          <mxGeometry relative="1" as="geometry">
            <mxPoint x="265" y="388" as="sourcePoint" />
          </mxGeometry>
        </mxCell>
        <mxCell id="URygbGzrcfz81gTZQ9Rd-16" style="edgeStyle=none;rounded=0;orthogonalLoop=1;jettySize=auto;html=1;exitX=1;exitY=1;exitDx=0;exitDy=0;entryX=0;entryY=0;entryDx=0;entryDy=0;endArrow=none;endFill=0;" parent="1" source="URygbGzrcfz81gTZQ9Rd-17" target="URygbGzrcfz81gTZQ9Rd-5" edge="1">
          <mxGeometry relative="1" as="geometry">
            <mxPoint x="265" y="588" as="targetPoint" />
          </mxGeometry>
        </mxCell>
        <mxCell id="URygbGzrcfz81gTZQ9Rd-17" value="crea" style="shape=rhombus;perimeter=rhombusPerimeter;whiteSpace=wrap;html=1;align=center;" parent="1" vertex="1">
          <mxGeometry x="405" y="463" width="60" height="60" as="geometry" />
        </mxCell>
        <mxCell id="URygbGzrcfz81gTZQ9Rd-19" style="edgeStyle=none;rounded=0;orthogonalLoop=1;jettySize=auto;html=1;exitX=0;exitY=1;exitDx=0;exitDy=0;entryX=1;entryY=0;entryDx=0;entryDy=0;endArrow=none;endFill=0;" parent="1" source="URygbGzrcfz81gTZQ9Rd-18" target="URygbGzrcfz81gTZQ9Rd-2" edge="1">
          <mxGeometry relative="1" as="geometry" />
        </mxCell>
        <mxCell id="URygbGzrcfz81gTZQ9Rd-20" style="edgeStyle=none;rounded=0;orthogonalLoop=1;jettySize=auto;html=1;exitX=1;exitY=0;exitDx=0;exitDy=0;entryX=0;entryY=1;entryDx=0;entryDy=0;endArrow=none;endFill=0;" parent="1" source="URygbGzrcfz81gTZQ9Rd-18" target="URygbGzrcfz81gTZQ9Rd-3" edge="1">
          <mxGeometry relative="1" as="geometry" />
        </mxCell>
        <mxCell id="URygbGzrcfz81gTZQ9Rd-18" value="crea" style="shape=rhombus;perimeter=rhombusPerimeter;whiteSpace=wrap;html=1;align=center;" parent="1" vertex="1">
          <mxGeometry x="405" y="222" width="60" height="60" as="geometry" />
        </mxCell>
        <mxCell id="URygbGzrcfz81gTZQ9Rd-23" style="edgeStyle=none;rounded=0;orthogonalLoop=1;jettySize=auto;html=1;exitX=1;exitY=0.5;exitDx=0;exitDy=0;entryX=0;entryY=0.5;entryDx=0;entryDy=0;endArrow=none;endFill=0;" parent="1" source="URygbGzrcfz81gTZQ9Rd-21" target="URygbGzrcfz81gTZQ9Rd-4" edge="1">
          <mxGeometry relative="1" as="geometry" />
        </mxCell>
        <mxCell id="URygbGzrcfz81gTZQ9Rd-21" value="crea" style="shape=rhombus;perimeter=rhombusPerimeter;whiteSpace=wrap;html=1;align=center;" parent="1" vertex="1">
          <mxGeometry x="411" y="338" width="60" height="60" as="geometry" />
        </mxCell>
        <mxCell id="URygbGzrcfz81gTZQ9Rd-25" style="edgeStyle=none;rounded=0;orthogonalLoop=1;jettySize=auto;html=1;exitX=1;exitY=0.5;exitDx=0;exitDy=0;endArrow=none;endFill=0;entryX=0;entryY=0.5;entryDx=0;entryDy=0;strokeWidth=2;" parent="1" source="URygbGzrcfz81gTZQ9Rd-24" edge="1">
          <mxGeometry relative="1" as="geometry">
            <mxPoint x="857" y="368" as="targetPoint" />
          </mxGeometry>
        </mxCell>
        <mxCell id="URygbGzrcfz81gTZQ9Rd-26" style="edgeStyle=none;rounded=0;orthogonalLoop=1;jettySize=auto;html=1;exitX=0;exitY=0.5;exitDx=0;exitDy=0;endArrow=none;endFill=0;entryX=1;entryY=0.5;entryDx=0;entryDy=0;" parent="1" source="URygbGzrcfz81gTZQ9Rd-24" target="URygbGzrcfz81gTZQ9Rd-4" edge="1">
          <mxGeometry relative="1" as="geometry">
            <mxPoint x="668" y="377" as="targetPoint" />
          </mxGeometry>
        </mxCell>
        <mxCell id="URygbGzrcfz81gTZQ9Rd-24" value="tiene" style="shape=rhombus;perimeter=rhombusPerimeter;whiteSpace=wrap;html=1;align=center;" parent="1" vertex="1">
          <mxGeometry x="740" y="338" width="60" height="60" as="geometry" />
        </mxCell>
        <mxCell id="URygbGzrcfz81gTZQ9Rd-29" style="edgeStyle=none;rounded=0;orthogonalLoop=1;jettySize=auto;html=1;exitX=0.5;exitY=0;exitDx=0;exitDy=0;entryX=0.5;entryY=1;entryDx=0;entryDy=0;endArrow=none;endFill=0;" parent="1" source="URygbGzrcfz81gTZQ9Rd-27" target="URygbGzrcfz81gTZQ9Rd-4" edge="1">
          <mxGeometry relative="1" as="geometry" />
        </mxCell>
        <mxCell id="URygbGzrcfz81gTZQ9Rd-27" value="pertenece" style="shape=rhombus;perimeter=rhombusPerimeter;whiteSpace=wrap;html=1;align=center;" parent="1" vertex="1">
          <mxGeometry x="573" y="463" width="70" height="60" as="geometry" />
        </mxCell>
        <mxCell id="URygbGzrcfz81gTZQ9Rd-32" style="edgeStyle=none;rounded=0;orthogonalLoop=1;jettySize=auto;html=1;exitX=1;exitY=1;exitDx=0;exitDy=0;entryX=0;entryY=0;entryDx=0;entryDy=0;endArrow=none;endFill=0;" parent="1" source="URygbGzrcfz81gTZQ9Rd-30" target="URygbGzrcfz81gTZQ9Rd-7" edge="1">
          <mxGeometry relative="1" as="geometry" />
        </mxCell>
        <mxCell id="URygbGzrcfz81gTZQ9Rd-30" value="tiene" style="shape=rhombus;perimeter=rhombusPerimeter;whiteSpace=wrap;html=1;align=center;" parent="1" vertex="1">
          <mxGeometry x="734" y="467" width="60" height="60" as="geometry" />
        </mxCell>
        <mxCell id="URygbGzrcfz81gTZQ9Rd-34" style="edgeStyle=none;rounded=0;orthogonalLoop=1;jettySize=auto;html=1;exitX=1;exitY=1;exitDx=0;exitDy=0;entryX=0;entryY=0;entryDx=0;entryDy=0;endArrow=none;endFill=0;" parent="1" source="URygbGzrcfz81gTZQ9Rd-33" target="4lqrX_P45TIulsFoDaGe-1" edge="1">
          <mxGeometry relative="1" as="geometry">
            <mxPoint x="857" y="348" as="targetPoint" />
          </mxGeometry>
        </mxCell>
        <mxCell id="URygbGzrcfz81gTZQ9Rd-35" style="edgeStyle=none;rounded=0;orthogonalLoop=1;jettySize=auto;html=1;exitX=0;exitY=0;exitDx=0;exitDy=0;entryX=1;entryY=1;entryDx=0;entryDy=0;endArrow=none;endFill=0;" parent="1" source="URygbGzrcfz81gTZQ9Rd-33" target="URygbGzrcfz81gTZQ9Rd-3" edge="1">
          <mxGeometry relative="1" as="geometry" />
        </mxCell>
        <mxCell id="URygbGzrcfz81gTZQ9Rd-33" value="contiene" style="shape=rhombus;perimeter=rhombusPerimeter;whiteSpace=wrap;html=1;align=center;" parent="1" vertex="1">
          <mxGeometry x="725" y="222" width="60" height="60" as="geometry" />
        </mxCell>
        <mxCell id="URygbGzrcfz81gTZQ9Rd-38" style="edgeStyle=none;rounded=0;orthogonalLoop=1;jettySize=auto;html=1;exitX=1;exitY=0.5;exitDx=0;exitDy=0;endArrow=none;endFill=0;" parent="1" source="URygbGzrcfz81gTZQ9Rd-36" edge="1">
          <mxGeometry relative="1" as="geometry">
            <mxPoint x="326" y="139" as="targetPoint" />
          </mxGeometry>
        </mxCell>
        <mxCell id="URygbGzrcfz81gTZQ9Rd-36" value="pertenece" style="shape=rhombus;perimeter=rhombusPerimeter;whiteSpace=wrap;html=1;align=center;" parent="1" vertex="1">
          <mxGeometry x="395" y="109" width="70" height="60" as="geometry" />
        </mxCell>
        <mxCell id="URygbGzrcfz81gTZQ9Rd-42" value="(1,1)" style="text;html=1;align=center;verticalAlign=middle;resizable=0;points=[];;autosize=1;" parent="1" vertex="1">
          <mxGeometry x="228" y="398" width="40" height="20" as="geometry" />
        </mxCell>
        <mxCell id="URygbGzrcfz81gTZQ9Rd-43" value="(1,1)" style="text;html=1;align=center;verticalAlign=middle;resizable=0;points=[];;autosize=1;" parent="1" vertex="1">
          <mxGeometry x="260" y="557" width="40" height="20" as="geometry" />
        </mxCell>
        <mxCell id="URygbGzrcfz81gTZQ9Rd-44" value="(0,N)" style="text;html=1;align=center;verticalAlign=middle;resizable=0;points=[];;autosize=1;" parent="1" vertex="1">
          <mxGeometry x="374" y="368" width="40" height="20" as="geometry" />
        </mxCell>
        <mxCell id="URygbGzrcfz81gTZQ9Rd-45" value="(1,1)" style="text;html=1;align=center;verticalAlign=middle;resizable=0;points=[];;autosize=1;" parent="1" vertex="1">
          <mxGeometry x="468" y="344" width="40" height="20" as="geometry" />
        </mxCell>
        <mxCell id="URygbGzrcfz81gTZQ9Rd-46" value="(0,N)" style="text;html=1;align=center;verticalAlign=middle;resizable=0;points=[];;autosize=1;" parent="1" vertex="1">
          <mxGeometry x="483" y="152" width="40" height="20" as="geometry" />
        </mxCell>
        <mxCell id="URygbGzrcfz81gTZQ9Rd-47" value="(1,1)" style="text;html=1;align=center;verticalAlign=middle;resizable=0;points=[];;autosize=1;" parent="1" vertex="1">
          <mxGeometry x="342" y="330" width="40" height="20" as="geometry" />
        </mxCell>
        <mxCell id="URygbGzrcfz81gTZQ9Rd-48" value="(0,N)" style="text;html=1;align=center;verticalAlign=middle;resizable=0;points=[];;autosize=1;" parent="1" vertex="1">
          <mxGeometry x="561" y="396" width="40" height="20" as="geometry" />
        </mxCell>
        <mxCell id="URygbGzrcfz81gTZQ9Rd-49" value="(1,1)" style="text;html=1;align=center;verticalAlign=middle;resizable=0;points=[];;autosize=1;" parent="1" vertex="1">
          <mxGeometry x="609" y="565" width="40" height="20" as="geometry" />
        </mxCell>
        <mxCell id="URygbGzrcfz81gTZQ9Rd-50" value="(1,1)" style="text;html=1;align=center;verticalAlign=middle;resizable=0;points=[];;autosize=1;" parent="1" vertex="1">
          <mxGeometry x="295" y="400" width="40" height="20" as="geometry" />
        </mxCell>
        <mxCell id="URygbGzrcfz81gTZQ9Rd-51" value="(0,N)" style="text;html=1;align=center;verticalAlign=middle;resizable=0;points=[];;autosize=1;" parent="1" vertex="1">
          <mxGeometry x="543" y="565" width="40" height="20" as="geometry" />
        </mxCell>
        <mxCell id="URygbGzrcfz81gTZQ9Rd-54" value="(1,N)" style="text;html=1;align=center;verticalAlign=middle;resizable=0;points=[];;autosize=1;" parent="1" vertex="1">
          <mxGeometry x="817" y="374" width="40" height="20" as="geometry" />
        </mxCell>
        <mxCell id="URygbGzrcfz81gTZQ9Rd-55" value="(1,1)" style="text;html=1;align=center;verticalAlign=middle;resizable=0;points=[];;autosize=1;" parent="1" vertex="1">
          <mxGeometry x="672" y="344" width="40" height="20" as="geometry" />
        </mxCell>
        <mxCell id="URygbGzrcfz81gTZQ9Rd-56" value="(1,1)" style="text;html=1;align=center;verticalAlign=middle;resizable=0;points=[];;autosize=1;" parent="1" vertex="1">
          <mxGeometry x="790" y="575" width="40" height="20" as="geometry" />
        </mxCell>
        <mxCell id="URygbGzrcfz81gTZQ9Rd-57" value="(1,N)" style="text;html=1;align=center;verticalAlign=middle;resizable=0;points=[];;autosize=1;" parent="1" vertex="1">
          <mxGeometry x="685" y="388" width="40" height="20" as="geometry" />
        </mxCell>
        <mxCell id="URygbGzrcfz81gTZQ9Rd-60" value="(0,1)" style="text;html=1;align=center;verticalAlign=middle;resizable=0;points=[];;autosize=1;" parent="1" vertex="1">
          <mxGeometry x="625" y="169" width="40" height="20" as="geometry" />
        </mxCell>
        <mxCell id="URygbGzrcfz81gTZQ9Rd-61" value="(1,1)" style="text;html=1;align=center;verticalAlign=middle;resizable=0;points=[];;autosize=1;" parent="1" vertex="1">
          <mxGeometry x="853" y="324" width="40" height="20" as="geometry" />
        </mxCell>
        <mxCell id="URygbGzrcfz81gTZQ9Rd-62" value="(0,N)" style="text;html=1;align=center;verticalAlign=middle;resizable=0;points=[];;autosize=1;" parent="1" vertex="1">
          <mxGeometry x="496" y="116" width="40" height="20" as="geometry" />
        </mxCell>
        <mxCell id="OZj-sqrpwGuW4iX8PO1a-11" style="edgeStyle=orthogonalEdgeStyle;rounded=0;orthogonalLoop=1;jettySize=auto;html=1;exitX=0.5;exitY=1;exitDx=0;exitDy=0;entryX=0.5;entryY=0;entryDx=0;entryDy=0;endArrow=none;endFill=0;" parent="1" source="OZj-sqrpwGuW4iX8PO1a-8" target="URygbGzrcfz81gTZQ9Rd-2" edge="1">
          <mxGeometry relative="1" as="geometry" />
        </mxCell>
        <mxCell id="OZj-sqrpwGuW4iX8PO1a-8" value="crea" style="shape=rhombus;perimeter=rhombusPerimeter;whiteSpace=wrap;html=1;align=center;" parent="1" vertex="1">
          <mxGeometry x="235" y="218" width="60" height="60" as="geometry" />
        </mxCell>
        <mxCell id="OZj-sqrpwGuW4iX8PO1a-12" value="(0,N)" style="text;html=1;align=center;verticalAlign=middle;resizable=0;points=[];;autosize=1;" parent="1" vertex="1">
          <mxGeometry x="222" y="164" width="40" height="20" as="geometry" />
        </mxCell>
        <mxCell id="OZj-sqrpwGuW4iX8PO1a-13" value="(1,1)" style="text;html=1;align=center;verticalAlign=middle;resizable=0;points=[];;autosize=1;" parent="1" vertex="1">
          <mxGeometry x="265" y="322" width="40" height="20" as="geometry" />
        </mxCell>
        <mxCell id="4lqrX_P45TIulsFoDaGe-1" value="Note Line" style="shape=ext;margin=3;double=1;whiteSpace=wrap;html=1;align=center;gradientColor=#ffffff;rounded=1;" parent="1" vertex="1">
          <mxGeometry x="857" y="348" width="100" height="40" as="geometry" />
        </mxCell>
        <mxCell id="HxxPnLg7nKZBC77vjXOF-3" value="(1,1)" style="text;html=1;align=center;verticalAlign=middle;resizable=0;points=[];;autosize=1;" vertex="1" parent="1">
          <mxGeometry x="327" y="116" width="40" height="20" as="geometry" />
        </mxCell>
      </root>
    </mxGraphModel>
  </diagram>
</mxfile>
